<svg width="1151" height="464" viewBox="0 0 1151 464" fill="none" xmlns="http://www.w3.org/2000/svg">
<path d="M299.647 134C317.634 134 332.222 147.982 332.222 165.233V298.77C332.222 316.015 317.634 330 299.647 330H160.357C142.366 330 127.778 316.015 127.778 298.77V165.233C127.778 147.982 142.366 134 160.357 134H299.647Z" fill="#FFFC00"/>
<path d="M298.93 265.599C298.327 263.687 295.444 262.34 295.444 262.34C295.171 262.202 294.927 262.078 294.727 261.982C289.921 259.754 285.66 257.072 282.074 254.033C279.19 251.585 276.723 248.889 274.743 246.028C272.319 242.535 271.185 239.619 270.698 238.038C270.425 237.006 270.468 236.593 270.698 236.057C270.884 235.603 271.444 235.177 271.702 234.971C273.323 233.87 275.934 232.248 277.54 231.258C278.932 230.391 280.123 229.648 280.826 229.181C283.078 227.668 284.627 226.128 285.531 224.463C286.707 222.318 286.851 219.952 285.933 217.628C284.699 214.492 281.643 212.622 277.756 212.622C276.895 212.622 276.005 212.718 275.116 212.897C272.892 213.365 270.784 214.121 269.019 214.781C268.99 214.794 268.957 214.799 268.925 214.796C268.893 214.793 268.862 214.782 268.836 214.764C268.809 214.746 268.789 214.721 268.776 214.693C268.762 214.664 268.757 214.633 268.761 214.602C268.948 210.408 269.163 204.769 268.675 199.419C268.244 194.578 267.197 190.493 265.504 186.931C263.797 183.355 261.574 180.715 259.838 178.803C258.188 176.988 255.276 174.306 250.886 171.899C244.718 168.516 237.688 166.797 229.999 166.797C222.324 166.797 215.309 168.516 209.126 171.899C204.478 174.443 201.508 177.318 200.16 178.803C198.424 180.715 196.201 183.355 194.493 186.931C192.786 190.493 191.753 194.564 191.323 199.419C190.835 204.797 191.036 209.982 191.237 214.603C191.237 214.74 191.108 214.836 190.964 214.781C189.2 214.121 187.091 213.365 184.868 212.897C183.992 212.718 183.103 212.622 182.228 212.622C178.355 212.622 175.299 214.492 174.051 217.628C173.133 219.952 173.276 222.318 174.453 224.463C175.371 226.128 176.906 227.668 179.158 229.181C179.847 229.648 181.051 230.391 182.443 231.258C184.007 232.234 186.546 233.816 188.181 234.902C188.382 235.04 189.071 235.535 189.286 236.057C189.515 236.607 189.558 237.02 189.257 238.12C188.755 239.716 187.622 242.604 185.24 246.028C183.261 248.903 180.793 251.585 177.91 254.033C174.323 257.072 170.063 259.754 165.257 261.982C165.027 262.092 164.755 262.216 164.468 262.381C164.468 262.381 161.599 263.784 161.054 265.599C160.25 268.281 162.388 270.798 164.554 272.146C168.112 274.346 172.444 275.529 174.955 276.175C175.657 276.354 176.289 276.519 176.863 276.684C177.221 276.794 178.125 277.124 178.512 277.606C179 278.211 179.057 278.953 179.23 279.792C179.502 281.209 180.119 282.955 181.941 284.166C183.949 285.486 186.489 285.582 189.716 285.706C193.087 285.83 197.276 285.981 202.082 287.508C204.306 288.209 206.328 289.406 208.653 290.781C213.53 293.655 219.598 297.231 229.956 297.231C240.328 297.231 246.439 293.642 251.345 290.754C253.669 289.392 255.663 288.209 257.844 287.521C262.649 285.995 266.838 285.843 270.21 285.72C273.438 285.596 275.977 285.514 277.985 284.179C279.936 282.887 280.496 280.961 280.754 279.517C280.897 278.802 280.983 278.156 281.414 277.633C281.787 277.179 282.619 276.863 283.006 276.739C283.594 276.56 284.254 276.395 284.986 276.203C287.496 275.556 290.652 274.8 294.483 272.723C299.102 270.206 299.417 267.126 298.93 265.599Z" fill="white"/>
<path d="M302.918 264.114C301.899 261.445 299.948 260.029 297.739 258.846C297.323 258.612 296.936 258.42 296.62 258.282C295.96 257.952 295.286 257.636 294.612 257.306C287.712 253.799 282.318 249.37 278.588 244.13C277.325 242.356 276.45 240.761 275.833 239.454C275.518 238.574 275.532 238.079 275.762 237.625C275.934 237.281 276.393 236.924 276.651 236.745C277.726 236.063 278.807 235.389 279.893 234.723C281.371 233.802 282.547 233.073 283.293 232.578C286.134 230.68 288.113 228.658 289.347 226.403C291.097 223.226 291.313 219.595 289.964 216.184C288.099 211.453 283.422 208.51 277.77 208.51C276.594 208.51 275.403 208.633 274.227 208.881C273.911 208.95 273.61 209.019 273.309 209.087C273.366 205.869 273.28 202.431 272.979 199.075C271.917 187.247 267.599 181.045 263.094 176.107C261.215 174.044 257.945 171.032 253.038 168.337C246.196 164.568 238.449 162.67 229.999 162.67C221.578 162.67 213.832 164.568 206.989 168.323C202.054 171.019 198.783 174.044 196.918 176.094C192.414 181.031 188.095 187.233 187.034 199.061C186.733 202.417 186.661 205.855 186.704 209.074C186.403 209.005 186.087 208.936 185.786 208.867C184.622 208.622 183.434 208.498 182.242 208.496C176.59 208.496 171.914 211.439 170.049 216.17C168.7 219.581 168.915 223.212 170.666 226.389C171.899 228.644 173.893 230.666 176.719 232.564C177.48 233.073 178.642 233.802 180.119 234.709C180.923 235.204 182.085 235.933 183.232 236.662C183.405 236.772 184.021 237.212 184.236 237.625C184.48 238.093 184.48 238.601 184.122 239.537C183.519 240.816 182.644 242.384 181.41 244.117C177.752 249.246 172.516 253.592 165.845 257.058C162.302 258.86 158.63 260.056 157.08 264.1C155.904 267.153 156.678 270.633 159.648 273.562C160.624 274.566 161.857 275.46 163.407 276.285C167.05 278.21 170.149 279.16 172.588 279.806C173.018 279.93 174.008 280.232 174.438 280.604C175.529 281.511 175.371 282.887 176.82 284.894C177.695 286.146 178.699 286.999 179.531 287.549C182.558 289.557 185.972 289.68 189.587 289.818C192.844 289.942 196.545 290.079 200.763 291.413C202.513 291.963 204.335 293.036 206.429 294.274C211.479 297.259 218.408 301.329 229.985 301.329C241.576 301.329 248.534 297.231 253.626 294.246C255.721 293.022 257.528 291.95 259.221 291.413C263.439 290.079 267.14 289.942 270.396 289.818C274.012 289.68 277.411 289.557 280.453 287.549C281.72 286.702 282.777 285.598 283.551 284.317C284.584 282.625 284.57 281.429 285.545 280.617C285.947 280.287 286.822 279.998 287.296 279.861C289.749 279.214 292.89 278.265 296.606 276.299C298.256 275.432 299.533 274.483 300.551 273.397L300.594 273.356C303.363 270.467 304.066 267.098 302.918 264.114ZM292.632 269.408C286.349 272.737 282.174 272.379 278.932 274.373C276.178 276.079 277.799 279.751 275.805 281.071C273.337 282.708 266.064 280.961 256.668 283.932C248.921 286.394 243.972 293.449 230.013 293.449C216.026 293.449 211.221 286.421 203.359 283.932C193.963 280.961 186.675 282.708 184.222 281.071C182.228 279.751 183.849 276.079 181.095 274.373C177.853 272.365 173.678 272.723 167.395 269.408C163.392 267.291 165.659 265.984 166.993 265.365C189.745 254.816 193.36 238.505 193.532 237.281C193.733 235.823 193.949 234.668 192.27 233.169C190.649 231.725 183.433 227.448 181.439 226.114C178.125 223.899 176.676 221.685 177.752 218.962C178.498 217.078 180.334 216.377 182.271 216.377C182.874 216.377 183.491 216.445 184.078 216.569C187.708 217.325 191.237 219.072 193.274 219.54C193.561 219.608 193.805 219.636 194.02 219.636C195.11 219.636 195.483 219.113 195.412 217.917C195.182 214.107 194.608 206.681 195.24 199.735C196.1 190.19 199.314 185.459 203.13 181.265C204.966 179.257 213.573 170.537 230.028 170.537C246.525 170.537 255.09 179.257 256.926 181.265C260.742 185.446 263.956 190.177 264.816 199.735C265.447 206.681 264.902 214.107 264.644 217.917C264.558 219.168 264.96 219.636 266.035 219.636C266.251 219.636 266.509 219.609 266.781 219.54C268.818 219.072 272.347 217.325 275.977 216.569C276.571 216.443 277.176 216.379 277.784 216.377C279.721 216.377 281.557 217.092 282.303 218.962C283.379 221.685 281.916 223.899 278.617 226.114C276.623 227.448 269.406 231.725 267.786 233.169C266.107 234.654 266.322 235.81 266.523 237.281C266.681 238.505 270.31 254.816 293.063 265.365C294.354 265.984 296.635 267.291 292.632 269.408Z" fill="black"/>
<path d="M446.711 210.019C446.321 206.094 444.651 203.046 441.7 200.873C438.748 198.699 434.743 197.613 429.683 197.613C426.245 197.613 423.342 198.099 420.974 199.072C418.607 200.013 416.79 201.327 415.526 203.013C414.293 204.7 413.677 206.613 413.677 208.754C413.612 210.538 413.985 212.095 414.796 213.424C415.639 214.754 416.79 215.906 418.25 216.879C419.71 217.819 421.396 218.646 423.31 219.36C425.223 220.041 427.267 220.625 429.44 221.111L438.391 223.252C442.737 224.225 446.727 225.522 450.359 227.144C453.992 228.766 457.138 230.76 459.798 233.128C462.457 235.496 464.517 238.285 465.976 241.496C467.468 244.707 468.23 248.388 468.263 252.539C468.23 258.637 466.674 263.924 463.592 268.4C460.544 272.843 456.133 276.297 450.359 278.762C444.619 281.195 437.694 282.411 429.586 282.411C421.542 282.411 414.536 281.178 408.569 278.713C402.633 276.248 397.995 272.6 394.654 267.767C391.346 262.902 389.611 256.886 389.449 249.718H409.833C410.06 253.058 411.017 255.848 412.704 258.086C414.423 260.291 416.709 261.961 419.564 263.097C422.45 264.199 425.71 264.751 429.342 264.751C432.91 264.751 436.007 264.232 438.635 263.194C441.294 262.156 443.354 260.713 444.813 258.864C446.273 257.015 447.002 254.891 447.002 252.491C447.002 250.253 446.338 248.372 445.008 246.847C443.71 245.323 441.797 244.026 439.267 242.955C436.77 241.885 433.705 240.912 430.072 240.036L419.223 237.312C410.823 235.268 404.19 232.074 399.325 227.728C394.46 223.382 392.044 217.527 392.076 210.165C392.044 204.132 393.649 198.862 396.892 194.353C400.168 189.845 404.66 186.326 410.369 183.796C416.077 181.266 422.564 180.001 429.829 180.001C437.224 180.001 443.678 181.266 449.192 183.796C454.738 186.326 459.052 189.845 462.133 194.353C465.214 198.862 466.803 204.083 466.901 210.019H446.711ZM502.768 237.798V281H482.043V206.273H501.795V219.457H502.671C504.325 215.111 507.098 211.673 510.99 209.143C514.882 206.581 519.601 205.3 525.147 205.3C530.337 205.3 534.861 206.435 538.721 208.705C542.581 210.976 545.581 214.219 547.721 218.435C549.862 222.619 550.932 227.614 550.932 233.42V281H530.207V237.117C530.24 232.544 529.072 228.976 526.704 226.414C524.337 223.819 521.077 222.522 516.926 222.522C514.136 222.522 511.671 223.122 509.531 224.322C507.422 225.522 505.768 227.274 504.568 229.576C503.401 231.847 502.801 234.587 502.768 237.798ZM588.576 282.411C583.808 282.411 579.559 281.584 575.829 279.93C572.099 278.243 569.148 275.762 566.975 272.486C564.834 269.178 563.764 265.059 563.764 260.129C563.764 255.977 564.526 252.491 566.05 249.669C567.575 246.847 569.651 244.577 572.278 242.858C574.905 241.139 577.889 239.842 581.229 238.966C584.603 238.09 588.138 237.474 591.835 237.117C596.181 236.663 599.684 236.241 602.344 235.852C605.003 235.431 606.933 234.814 608.133 234.004C609.333 233.193 609.933 231.993 609.933 230.403V230.112C609.933 227.03 608.96 224.646 607.014 222.96C605.101 221.273 602.376 220.43 598.841 220.43C595.111 220.43 592.143 221.257 589.938 222.911C587.732 224.533 586.273 226.576 585.559 229.041L566.391 227.484C567.364 222.944 569.278 219.019 572.132 215.711C574.986 212.37 578.667 209.808 583.175 208.024C587.716 206.208 592.97 205.3 598.938 205.3C603.09 205.3 607.063 205.786 610.858 206.759C614.685 207.732 618.074 209.24 621.026 211.284C624.009 213.327 626.361 215.954 628.08 219.165C629.799 222.344 630.658 226.155 630.658 230.598V281H611.004V270.637H610.42C609.22 272.973 607.614 275.032 605.603 276.816C603.592 278.567 601.176 279.946 598.354 280.951C595.533 281.924 592.273 282.411 588.576 282.411ZM594.511 268.108C597.56 268.108 600.252 267.508 602.587 266.308C604.922 265.075 606.755 263.421 608.085 261.345C609.414 259.269 610.079 256.918 610.079 254.291V246.361C609.431 246.782 608.539 247.172 607.403 247.528C606.301 247.853 605.052 248.161 603.657 248.453C602.263 248.712 600.868 248.955 599.473 249.183C598.079 249.377 596.814 249.556 595.679 249.718C593.246 250.074 591.122 250.642 589.305 251.42C587.489 252.199 586.078 253.253 585.073 254.583C584.067 255.88 583.565 257.502 583.565 259.448C583.565 262.27 584.586 264.426 586.63 265.918C588.705 267.378 591.333 268.108 594.511 268.108ZM646.737 309.023V206.273H667.171V218.825H668.095C669.003 216.814 670.317 214.77 672.036 212.695C673.787 210.586 676.057 208.835 678.847 207.44C681.669 206.013 685.171 205.3 689.355 205.3C694.804 205.3 699.831 206.727 704.437 209.581C709.043 212.403 712.724 216.668 715.481 222.376C718.238 228.052 719.616 235.171 719.616 243.734C719.616 252.069 718.27 259.107 715.578 264.848C712.918 270.556 709.286 274.886 704.68 277.838C700.107 280.757 694.983 282.216 689.307 282.216C685.285 282.216 681.863 281.551 679.041 280.222C676.252 278.892 673.965 277.221 672.182 275.211C670.398 273.167 669.036 271.108 668.095 269.032H667.463V309.023H646.737ZM667.025 243.636C667.025 248.08 667.641 251.956 668.873 255.264C670.106 258.572 671.89 261.151 674.225 262.999C676.56 264.816 679.398 265.724 682.739 265.724C686.112 265.724 688.966 264.799 691.301 262.951C693.637 261.069 695.404 258.475 696.604 255.167C697.837 251.826 698.453 247.982 698.453 243.636C698.453 239.323 697.853 235.528 696.653 232.252C695.453 228.976 693.685 226.414 691.35 224.565C689.015 222.717 686.144 221.792 682.739 221.792C679.366 221.792 676.512 222.684 674.176 224.468C671.874 226.252 670.106 228.782 668.873 232.058C667.641 235.333 667.025 239.193 667.025 243.636ZM767.196 282.46C759.542 282.46 752.958 280.838 747.444 277.594C741.963 274.319 737.746 269.778 734.795 263.972C731.876 258.167 730.416 251.485 730.416 243.928C730.416 236.274 731.892 229.56 734.844 223.787C737.827 217.981 742.06 213.457 747.541 210.213C753.023 206.938 759.542 205.3 767.099 205.3C773.618 205.3 779.326 206.484 784.224 208.851C789.121 211.219 792.997 214.543 795.851 218.825C798.706 223.106 800.279 228.133 800.57 233.906H781.013C780.462 230.176 779.002 227.176 776.634 224.906C774.299 222.603 771.234 221.452 767.439 221.452C764.229 221.452 761.423 222.327 759.023 224.079C756.655 225.798 754.807 228.311 753.477 231.62C752.147 234.928 751.482 238.933 751.482 243.636C751.482 248.404 752.131 252.458 753.428 255.799C754.758 259.14 756.623 261.686 759.023 263.437C761.423 265.189 764.229 266.064 767.439 266.064C769.807 266.064 771.932 265.578 773.813 264.605C775.726 263.632 777.299 262.221 778.532 260.372C779.797 258.491 780.624 256.237 781.013 253.61H800.57C800.246 259.318 798.689 264.345 795.9 268.691C793.143 273.005 789.332 276.378 784.467 278.811C779.602 281.243 773.845 282.46 767.196 282.46ZM834.565 237.798V281H813.84V181.364H833.981V219.457H834.857C836.544 215.046 839.268 211.592 843.03 209.094C846.793 206.565 851.512 205.3 857.188 205.3C862.377 205.3 866.901 206.435 870.761 208.705C874.653 210.943 877.669 214.17 879.81 218.387C881.983 222.571 883.053 227.582 883.021 233.42V281H862.296V237.117C862.328 232.512 861.161 228.928 858.793 226.365C856.458 223.803 853.182 222.522 848.966 222.522C846.144 222.522 843.647 223.122 841.473 224.322C839.333 225.522 837.646 227.274 836.414 229.576C835.214 231.847 834.598 234.587 834.565 237.798ZM920.64 282.411C915.872 282.411 911.624 281.584 907.894 279.93C904.164 278.243 901.212 275.762 899.039 272.486C896.899 269.178 895.828 265.059 895.828 260.129C895.828 255.977 896.59 252.491 898.115 249.669C899.639 246.847 901.715 244.577 904.342 242.858C906.969 241.139 909.953 239.842 913.294 238.966C916.667 238.09 920.202 237.474 923.9 237.117C928.246 236.663 931.749 236.241 934.408 235.852C937.068 235.431 938.998 234.814 940.198 234.004C941.398 233.193 941.998 231.993 941.998 230.403V230.112C941.998 227.03 941.025 224.646 939.079 222.96C937.165 221.273 934.441 220.43 930.905 220.43C927.175 220.43 924.208 221.257 922.002 222.911C919.797 224.533 918.337 226.576 917.624 229.041L898.455 227.484C899.428 222.944 901.342 219.019 904.196 215.711C907.05 212.37 910.732 209.808 915.24 208.024C919.781 206.208 925.035 205.3 931.003 205.3C935.154 205.3 939.127 205.786 942.922 206.759C946.749 207.732 950.139 209.24 953.09 211.284C956.074 213.327 958.425 215.954 960.144 219.165C961.863 222.344 962.723 226.155 962.723 230.598V281H943.068V270.637H942.484C941.284 272.973 939.679 275.032 937.668 276.816C935.657 278.567 933.241 279.946 930.419 280.951C927.597 281.924 924.338 282.411 920.64 282.411ZM926.575 268.108C929.624 268.108 932.316 267.508 934.651 266.308C936.987 265.075 938.819 263.421 940.149 261.345C941.479 259.269 942.144 256.918 942.144 254.291V246.361C941.495 246.782 940.603 247.172 939.468 247.528C938.365 247.853 937.116 248.161 935.722 248.453C934.327 248.712 932.932 248.955 931.538 249.183C930.143 249.377 928.878 249.556 927.743 249.718C925.311 250.074 923.186 250.642 921.37 251.42C919.554 252.199 918.143 253.253 917.137 254.583C916.132 255.88 915.629 257.502 915.629 259.448C915.629 262.27 916.651 264.426 918.694 265.918C920.77 267.378 923.397 268.108 926.575 268.108ZM1018.55 206.273V221.841H973.548V206.273H1018.55ZM983.764 188.369H1004.49V258.037C1004.49 259.951 1004.78 261.442 1005.37 262.513C1005.95 263.551 1006.76 264.28 1007.8 264.702C1008.87 265.124 1010.1 265.335 1011.5 265.335C1012.47 265.335 1013.44 265.253 1014.41 265.091C1015.39 264.897 1016.13 264.751 1016.65 264.653L1019.91 280.076C1018.87 280.4 1017.41 280.773 1015.53 281.195C1013.65 281.649 1011.37 281.924 1008.67 282.022C1003.68 282.216 999.3 281.551 995.538 280.027C991.808 278.503 988.905 276.135 986.829 272.924C984.753 269.713 983.732 265.659 983.764 260.761V188.369Z" fill="white"/>
</svg>
